<?xml version="1.0" standalone="no"?>
<!DOCTYPE svg PUBLIC "-//W3C//DTD SVG 20010904//EN"
 "http://www.w3.org/TR/2001/REC-SVG-20010904/DTD/svg10.dtd">
<svg version="1.0" xmlns="http://www.w3.org/2000/svg"
 width="317.000000pt" height="140.000000pt" viewBox="0 0 317.000000 140.000000"
 preserveAspectRatio="xMidYMid meet">

<g transform="translate(0.000000,140.000000) scale(0.100000,-0.100000)"
fill="#000000" stroke="none">
<path d="M2120 1183 c-63 -13 -131 -33 -150 -45 l-35 -20 34 36 c41 42 38 43
-84 21 -44 -8 -98 -15 -120 -15 -22 0 -138 -21 -259 -46 -127 -27 -221 -43
-225 -37 -9 13 -74 50 -148 83 l-63 29 -11 -37 c-10 -35 -13 -37 -55 -39 -49
-2 -157 -48 -212 -90 -19 -14 -52 -53 -74 -87 -21 -33 -47 -64 -57 -68 -30
-11 -55 -118 -55 -233 1 -214 88 -346 237 -362 37 -4 70 0 102 10 l46 16 -6
-28 -6 -29 103 25 c57 13 115 27 129 29 24 6 26 12 43 117 10 62 19 130 20
151 1 36 4 40 34 48 20 5 32 15 33 26 0 9 3 12 5 6 3 -7 -7 -90 -21 -185 -13
-95 -24 -174 -22 -175 1 -1 69 5 150 14 135 14 148 17 151 36 12 59 28 275 22
285 -10 16 24 234 38 243 6 4 22 8 35 8 18 0 22 -4 16 -17 -33 -80 -42 -176
-33 -339 4 -79 16 -103 79 -164 57 -55 112 -74 201 -68 141 9 233 80 314 239
120 240 108 492 -27 567 -66 37 -66 36 -35 77 15 20 26 38 25 39 -2 2 -56 -8
-119 -21z m-8 -66 c-12 -13 -22 -26 -22 -29 0 -3 24 -8 54 -10 136 -11 200
-146 162 -337 -18 -86 -51 -187 -65 -196 -10 -6 3 57 23 112 23 63 38 172 31
228 -7 47 -38 135 -49 135 -3 0 2 -16 10 -36 8 -20 13 -38 11 -40 -2 -3 -10 9
-17 26 -21 52 -66 78 -137 82 -66 3 -70 6 -52 40 10 18 8 19 -13 13 -37 -12
-81 -41 -118 -81 -19 -20 -29 -34 -22 -30 7 4 -6 -21 -30 -56 -46 -69 -62 -74
-29 -10 11 22 18 42 15 44 -2 3 16 28 41 56 45 50 108 88 169 103 55 13 61 11
38 -14z m-253 -24 c-26 -30 -29 -39 -17 -41 14 -3 12 -11 -13 -47 -16 -23 -29
-48 -29 -54 0 -16 -34 -27 -104 -35 -33 -4 -65 -11 -72 -16 -6 -6 -14 -34 -18
-63 -4 -28 -15 -106 -26 -172 -10 -66 -21 -145 -23 -175 l-6 -55 14 45 c14 45
14 44 8 -35 -3 -44 -8 -83 -12 -87 -3 -4 -35 -10 -71 -12 -36 -3 -83 -9 -104
-12 -39 -7 -39 -7 -33 22 3 16 12 79 19 139 10 87 14 102 18 70 4 -31 10 -5
28 115 13 85 25 163 28 173 7 23 -10 22 -129 -7 l-98 -24 28 31 c27 29 27 30
5 24 -21 -5 -23 -3 -18 16 3 12 11 45 17 73 l12 52 60 12 c33 6 121 27 196 46
145 36 174 41 126 19 -41 -19 -27 -18 100 9 154 33 154 34 114 -11z m-681 -4
c36 -20 52 -35 48 -45 -4 -11 -23 -71 -62 -201 -2 -7 -17 -13 -34 -13 -17 0
-44 -7 -60 -15 l-30 -16 0 40 c0 112 -124 50 -193 -97 -29 -60 -32 -77 -32
-159 0 -77 -2 -88 -12 -70 -19 33 -15 122 7 197 20 67 30 83 96 152 65 67 138
72 150 9 5 -25 10 -28 37 -25 45 6 61 28 90 122 l25 83 -49 24 -48 25 -12 -40
c-11 -37 -13 -38 -33 -25 -51 36 -155 -2 -229 -85 -53 -59 -63 -55 -17 7 57
78 156 124 229 108 26 -6 30 -3 36 24 8 39 25 39 93 0z m-375 -136 c-49 -63
-75 -112 -100 -187 -22 -67 -23 -69 -18 -25 2 26 15 71 28 100 25 56 105 165
114 155 3 -3 -8 -22 -24 -43z m1306 -32 c32 -22 61 -78 61 -118 0 -181 -135
-360 -236 -312 -64 31 -85 156 -45 274 13 38 19 47 15 25 -19 -121 -21 -151
-13 -195 11 -57 33 -85 66 -85 35 0 59 16 88 58 28 41 33 37 10 -11 l-16 -32
30 33 c43 50 71 133 76 227 3 56 2 69 -4 45 l-8 -35 -2 32 c-3 72 -44 108 -96
85 -33 -15 -72 -70 -95 -133 -18 -51 -19 -52 -14 -14 10 74 25 104 71 145 49
43 65 45 112 11z m-305 -63 c-8 -24 -21 -70 -29 -103 -13 -58 -13 -59 -14 -19
-1 45 20 127 39 149 19 23 20 18 4 -27z m-60 -171 c-7 -135 4 -191 51 -261 13
-19 21 -37 18 -39 -12 -13 79 -47 125 -47 76 0 196 49 165 68 -7 5 7 26 40 62
50 54 53 53 15 -2 -22 -32 -18 -35 20 -10 l27 17 -22 -28 c-100 -128 -268
-164 -380 -80 -38 29 -72 76 -48 67 12 -5 10 5 -7 42 -27 60 -36 194 -18 277
6 31 13 57 16 57 2 0 1 -55 -2 -123z m-1077 -14 c-1 -103 2 -127 23 -188 43
-121 119 -170 226 -146 28 7 60 18 70 26 18 15 18 15 -1 10 -20 -6 -20 -6 -1
7 11 7 39 30 63 52 l43 39 -6 -34 c-3 -19 -10 -49 -15 -68 -9 -37 -3 -54 10
-33 4 7 19 12 32 11 60 -5 67 -1 78 49 12 55 29 103 30 82 1 -20 -17 -132 -22
-137 -2 -2 -31 -10 -63 -18 -32 -9 -68 -18 -78 -21 -17 -6 -18 -2 -13 27 3 19
9 45 13 59 7 24 7 24 -29 -7 -57 -50 -96 -66 -157 -66 -90 0 -148 43 -188 140
-37 87 -44 179 -26 301 9 61 13 31 11 -85z m663 103 c-6 -8 -15 -36 -18 -63
-6 -43 -10 -49 -39 -57 -30 -9 -33 -15 -55 -98 -12 -48 -26 -88 -30 -88 -8 0
-7 11 14 95 21 91 28 104 56 107 24 3 27 8 30 46 4 50 4 49 -99 23 -41 -10
-90 -21 -108 -25 -76 -14 -111 -27 -111 -41 0 -8 4 -15 9 -15 6 0 4 -12 -4
-27 -8 -15 -13 -29 -11 -31 3 -2 31 4 64 13 95 27 102 20 49 -51 -108 -146
-259 -136 -256 18 l1 43 13 -55 c21 -89 72 -112 149 -67 41 23 104 93 93 103
-3 3 -40 -5 -81 -19 l-76 -26 20 39 c11 21 15 40 10 42 -6 2 -6 15 -2 33 9 34
34 43 247 89 136 30 152 31 135 12z m52 -43 c-3 -16 -11 -37 -18 -48 -14 -19
-14 -19 -14 2 0 29 17 73 28 73 5 0 7 -12 4 -27z"/>
<path d="M1670 1069 c-152 -32 -161 -33 -140 -19 17 12 0 9 -122 -21 -42 -10
-85 -19 -96 -19 -26 0 -38 -17 -47 -66 -6 -40 -6 -41 26 -48 31 -6 32 -7 13
-22 -19 -15 -19 -15 1 -10 49 13 160 34 163 31 7 -6 -58 -389 -66 -394 -5 -3
-13 -33 -17 -65 -4 -33 -9 -65 -12 -73 -10 -26 36 -14 51 15 13 24 15 25 16 6
0 -17 6 -20 28 -18 15 1 34 2 43 3 13 1 18 18 23 89 3 48 18 161 33 251 20
124 24 168 15 181 -9 15 -7 19 11 24 12 3 33 6 47 6 17 0 21 3 12 9 -16 10 30
21 87 21 32 0 39 5 57 40 15 26 18 40 10 43 -7 3 -5 14 7 36 22 37 31 37 -143
0z m-340 -114 c0 -2 -10 -9 -22 -15 -22 -11 -22 -10 -4 4 21 17 26 19 26 11z"/>
</g>
</svg>
